<svg width="325" height="820" viewBox="0 0 325 820" fill="none" xmlns="http://www.w3.org/2000/svg">
<g filter="url(#filter0_d_125_1309)">
<mask id="path-1-inside-1_125_1309" fill="white">
<path fill-rule="evenodd" clip-rule="evenodd" d="M20 6C14.4772 6 10 10.4772 10 16V782.925V784V799.136H38.5938L40.2757 801.093L45.3217 795.782L48.4053 799.136H89.8943L93.5386 795.782H113.722L119.89 802.49H140.634L143.718 805.844L151.567 798.018H197.394L199.223 796.062L200.905 798.018H283.042L286.849 794H288.762L296.498 802.211H304.067L307.566 799.119H315V784V782.925V16C315 10.4772 310.523 6 305 6H20ZM201.103 794L199.223 796.062L197.343 794H201.103Z"/>
</mask>
<path fill-rule="evenodd" clip-rule="evenodd" d="M20 6C14.4772 6 10 10.4772 10 16V782.925V784V799.136H38.5938L40.2757 801.093L45.3217 795.782L48.4053 799.136H89.8943L93.5386 795.782H113.722L119.89 802.49H140.634L143.718 805.844L151.567 798.018H197.394L199.223 796.062L200.905 798.018H283.042L286.849 794H288.762L296.498 802.211H304.067L307.566 799.119H315V784V782.925V16C315 10.4772 310.523 6 305 6H20ZM201.103 794L199.223 796.062L197.343 794H201.103Z" fill="black"/>
<path d="M10 799.136H7V802.136H10V799.136ZM38.5938 799.136L40.8686 797.181L39.9709 796.136H38.5938V799.136ZM40.2757 801.093L38.0008 803.049L40.1644 805.565L42.4505 803.159L40.2757 801.093ZM45.3217 795.782L47.5302 793.752L45.3578 791.389L43.1469 793.716L45.3217 795.782ZM48.4053 799.136L46.1969 801.167L47.0883 802.136H48.4053V799.136ZM89.8943 799.136V802.136H91.0647L91.9259 801.344L89.8943 799.136ZM93.5386 795.782V792.782H92.3682L91.507 793.575L93.5386 795.782ZM113.722 795.782L115.931 793.752L115.039 792.782H113.722V795.782ZM119.89 802.49L117.681 804.521L118.573 805.49H119.89V802.49ZM140.634 802.49L142.843 800.46L141.951 799.49H140.634V802.49ZM143.718 805.844L141.509 807.875L143.624 810.175L145.836 807.969L143.718 805.844ZM151.567 798.018V795.018H150.327L149.449 795.894L151.567 798.018ZM197.394 798.018V801.018H198.696L199.586 800.067L197.394 798.018ZM200.905 798.018L198.63 799.974L199.528 801.018H200.905V798.018ZM283.042 798.018V801.018H284.333L285.22 800.081L283.042 798.018ZM286.849 794V791H285.558L284.671 791.937L286.849 794ZM288.762 794L290.946 791.943L290.057 791H288.762V794ZM296.498 802.211L294.315 804.268L295.203 805.211H296.498V802.211ZM304.067 802.211V805.211H305.203L306.053 804.459L304.067 802.211ZM307.566 799.119V796.119H306.431L305.58 796.871L307.566 799.119ZM315 799.119V802.119H318V799.119H315ZM201.103 794L203.32 796.021L207.898 791H201.103V794ZM197.343 794V791H190.548L195.127 796.021L197.343 794ZM13 16C13 12.134 16.134 9 20 9V3C12.8203 3 7 8.82031 7 16H13ZM13 782.925V16H7V782.925H13ZM13 784V782.925H7V784H13ZM13 799.136V784H7V799.136H13ZM38.5938 796.136H10V802.136H38.5938V796.136ZM42.5506 799.137L40.8686 797.181L36.3189 801.092L38.0008 803.049L42.5506 799.137ZM43.1469 793.716L38.1009 799.026L42.4505 803.159L47.4965 797.849L43.1469 793.716ZM50.6138 797.106L47.5302 793.752L43.1132 797.813L46.1969 801.167L50.6138 797.106ZM89.8943 796.136H48.4053V802.136H89.8943V796.136ZM91.507 793.575L87.8627 796.929L91.9259 801.344L95.5702 797.99L91.507 793.575ZM113.722 792.782H93.5386V798.782H113.722V792.782ZM122.098 800.46L115.931 793.752L111.514 797.813L117.681 804.521L122.098 800.46ZM140.634 799.49H119.89V805.49H140.634V799.49ZM145.926 803.814L142.843 800.46L138.426 804.521L141.509 807.875L145.926 803.814ZM149.449 795.894L141.6 803.72L145.836 807.969L153.685 800.143L149.449 795.894ZM197.394 795.018H151.567V801.018H197.394V795.018ZM197.032 794.013L195.203 795.97L199.586 800.067L201.415 798.111L197.032 794.013ZM203.18 796.063L201.498 794.106L196.948 798.018L198.63 799.974L203.18 796.063ZM283.042 795.018H200.905V801.018H283.042V795.018ZM284.671 791.937L280.864 795.955L285.22 800.081L289.027 796.063L284.671 791.937ZM288.762 791H286.849V797H288.762V791ZM298.682 800.154L290.946 791.943L286.579 796.057L294.315 804.268L298.682 800.154ZM304.067 799.211H296.498V805.211H304.067V799.211ZM305.58 796.871L302.081 799.963L306.053 804.459L309.553 801.367L305.58 796.871ZM315 796.119H307.566V802.119H315V796.119ZM312 784V799.119H318V784H312ZM312 782.925V784H318V782.925H312ZM312 16V782.925H318V16H312ZM305 9C308.866 9 312 12.134 312 16H318C318 8.82029 312.18 3 305 3V9ZM20 9H305V3H20V9ZM201.44 798.083L203.32 796.021L198.886 791.979L197.007 794.041L201.44 798.083ZM195.127 796.021L197.007 798.083L201.44 794.041L199.56 791.979L195.127 796.021ZM201.103 791H197.343V797H201.103V791Z" fill="url(#paint0_linear_125_1309)" mask="url(#path-1-inside-1_125_1309)"/>
</g>
<defs>
<filter id="filter0_d_125_1309" x="0" y="0" width="325" height="819.844" filterUnits="userSpaceOnUse" color-interpolation-filters="sRGB">
<feFlood flood-opacity="0" result="BackgroundImageFix"/>
<feColorMatrix in="SourceAlpha" type="matrix" values="0 0 0 0 0 0 0 0 0 0 0 0 0 0 0 0 0 0 127 0" result="hardAlpha"/>
<feOffset dy="4"/>
<feGaussianBlur stdDeviation="5"/>
<feComposite in2="hardAlpha" operator="out"/>
<feColorMatrix type="matrix" values="0 0 0 0 0 0 0 0 0 0 0 0 0 0 0 0 0 0 0.25 0"/>
<feBlend mode="normal" in2="BackgroundImageFix" result="effect1_dropShadow_125_1309"/>
<feBlend mode="normal" in="SourceGraphic" in2="effect1_dropShadow_125_1309" result="shape"/>
</filter>
<linearGradient id="paint0_linear_125_1309" x1="95.5" y1="-731" x2="97.9112" y2="806" gradientUnits="userSpaceOnUse">
<stop stop-color="#35258D"/>
<stop offset="1" stop-color="#06BDFC"/>
</linearGradient>
</defs>
</svg>
