<svg width="384" height="140" viewBox="0 0 384 140" fill="none" xmlns="http://www.w3.org/2000/svg">
<g filter="url(#filter0_d_53_175)">
<mask id="path-1-inside-1_53_175" fill="white">
<path fill-rule="evenodd" clip-rule="evenodd" d="M20 6.8623C14.4772 6.8623 10 11.3395 10 16.8623V99.8623V102.862V118.253H44.125L46.1324 120.472L52.1544 114.448L55.8346 118.253H105.349L109.699 114.448H133.787L141.147 122.057H165.904L169.585 125.862L178.952 116.984H233.644L235.827 114.765L237.835 116.984H335.86L339.968 112.862H343.119L351.919 121.74H360.952L365.128 118.233H374V102.862V99.8623V16.8623C374 11.3395 369.523 6.8623 364 6.8623H20ZM237.652 112.862L235.827 114.765L234.002 112.862H237.652Z"/>
</mask>
<path fill-rule="evenodd" clip-rule="evenodd" d="M20 6.8623C14.4772 6.8623 10 11.3395 10 16.8623V99.8623V102.862V118.253H44.125L46.1324 120.472L52.1544 114.448L55.8346 118.253H105.349L109.699 114.448H133.787L141.147 122.057H165.904L169.585 125.862L178.952 116.984H233.644L235.827 114.765L237.835 116.984H335.86L339.968 112.862H343.119L351.919 121.74H360.952L365.128 118.233H374V102.862V99.8623V16.8623C374 11.3395 369.523 6.8623 364 6.8623H20ZM237.652 112.862L235.827 114.765L234.002 112.862H237.652Z" fill="url(#paint0_linear_53_175)" shape-rendering="crispEdges"/>
<path d="M10 118.253H7V121.253H10V118.253ZM44.125 118.253L46.35 116.24L45.4567 115.253H44.125V118.253ZM46.1324 120.472L43.9074 122.484L46.0236 124.824L48.2541 122.593L46.1324 120.472ZM52.1544 114.448L54.3108 112.362L52.1896 110.169L50.0327 112.327L52.1544 114.448ZM55.8346 118.253L53.6782 120.338L54.5625 121.253H55.8346V118.253ZM105.349 118.253V121.253H106.476L107.325 120.51L105.349 118.253ZM109.699 114.448V111.448H108.571L107.723 112.19L109.699 114.448ZM133.787 114.448L135.943 112.362L135.059 111.448H133.787V114.448ZM141.147 122.057L138.991 124.143L139.875 125.057H141.147V122.057ZM165.904 122.057L168.061 119.972L167.176 119.057H165.904V122.057ZM169.585 125.862L167.428 127.948L169.493 130.083L171.648 128.04L169.585 125.862ZM178.952 116.984V113.984H177.756L176.889 114.807L178.952 116.984ZM233.644 116.984V119.984H234.901L235.783 119.088L233.644 116.984ZM237.835 116.984L235.61 118.997L236.503 119.984H237.835V116.984ZM335.86 116.984V119.984H337.106L337.985 119.102L335.86 116.984ZM339.968 112.862V109.862H338.722L337.843 110.745L339.968 112.862ZM343.119 112.862L345.25 110.75L344.37 109.862H343.119V112.862ZM351.919 121.74L349.788 123.852L350.669 124.74H351.919V121.74ZM360.952 121.74V124.74H362.045L362.882 124.038L360.952 121.74ZM365.128 118.233V115.233H364.035L363.199 115.936L365.128 118.233ZM374 118.233V121.233H377V118.233H374ZM237.652 112.862L239.817 114.939L244.687 109.862H237.652V112.862ZM234.002 112.862V109.862H226.968L231.837 114.939L234.002 112.862ZM13 16.8623C13 12.9963 16.134 9.8623 20 9.8623V3.8623C12.8203 3.8623 7 9.6826 7 16.8623H13ZM13 99.8623V16.8623H7V99.8623H13ZM13 102.862V99.8623H7V102.862H13ZM13 118.253V102.862H7V118.253H13ZM44.125 115.253H10V121.253H44.125V115.253ZM48.3573 118.46L46.35 116.24L41.9 120.265L43.9074 122.484L48.3573 118.46ZM50.0327 112.327L44.0106 118.351L48.2541 122.593L54.2761 116.569L50.0327 112.327ZM57.9909 116.167L54.3108 112.362L49.998 116.533L53.6782 120.338L57.9909 116.167ZM105.349 115.253H55.8346V121.253H105.349V115.253ZM107.723 112.19L103.374 115.995L107.325 120.51L111.674 116.706L107.723 112.19ZM133.787 111.448H109.699V117.448H133.787V111.448ZM143.303 119.972L135.943 112.362L131.63 116.533L138.991 124.143L143.303 119.972ZM165.904 119.057H141.147V125.057H165.904V119.057ZM171.741 123.777L168.061 119.972L163.748 124.143L167.428 127.948L171.741 123.777ZM176.889 114.807L167.521 123.685L171.648 128.04L181.016 119.162L176.889 114.807ZM233.644 113.984H178.952V119.984H233.644V113.984ZM233.688 112.661L231.505 114.881L235.783 119.088L237.966 116.868L233.688 112.661ZM240.06 114.972L238.052 112.752L233.602 116.777L235.61 118.997L240.06 114.972ZM335.86 113.984H237.835V119.984H335.86V113.984ZM337.843 110.745L333.735 114.867L337.985 119.102L342.093 114.98L337.843 110.745ZM343.119 109.862H339.968V115.862H343.119V109.862ZM354.05 119.628L345.25 110.75L340.989 114.974L349.788 123.852L354.05 119.628ZM360.952 118.74H351.919V124.74H360.952V118.74ZM363.199 115.936L359.023 119.443L362.882 124.038L367.058 120.53L363.199 115.936ZM374 115.233H365.128V121.233H374V115.233ZM371 102.862V118.233H377V102.862H371ZM371 99.8623V102.862H377V99.8623H371ZM371 16.8623V99.8623H377V16.8623H371ZM364 9.8623C367.866 9.8623 371 12.9963 371 16.8623H377C377 9.6826 371.18 3.8623 364 3.8623V9.8623ZM20 9.8623H364V3.8623H20V9.8623ZM237.992 116.841L239.817 114.939L235.487 110.786L233.662 112.688L237.992 116.841ZM231.837 114.939L233.662 116.841L237.992 112.688L236.167 110.786L231.837 114.939ZM237.652 109.862H234.002V115.862H237.652V109.862Z" fill="url(#paint1_linear_53_175)" mask="url(#path-1-inside-1_53_175)"/>
</g>
<defs>
<filter id="filter0_d_53_175" x="0" y="0.862305" width="384" height="139" filterUnits="userSpaceOnUse" color-interpolation-filters="sRGB">
<feFlood flood-opacity="0" result="BackgroundImageFix"/>
<feColorMatrix in="SourceAlpha" type="matrix" values="0 0 0 0 0 0 0 0 0 0 0 0 0 0 0 0 0 0 127 0" result="hardAlpha"/>
<feOffset dy="4"/>
<feGaussianBlur stdDeviation="5"/>
<feComposite in2="hardAlpha" operator="out"/>
<feColorMatrix type="matrix" values="0 0 0 0 0 0 0 0 0 0 0 0 0 0 0 0 0 0 0.25 0"/>
<feBlend mode="normal" in2="BackgroundImageFix" result="effect1_dropShadow_53_175"/>
<feBlend mode="normal" in="SourceGraphic" in2="effect1_dropShadow_53_175" result="shape"/>
</filter>
<linearGradient id="paint0_linear_53_175" x1="117.15" y1="-47.1377" x2="117.15" y2="112.862" gradientUnits="userSpaceOnUse">
<stop stop-color="#352D66" stop-opacity="0"/>
<stop offset="1" stop-color="#352D66"/>
</linearGradient>
<linearGradient id="paint1_linear_53_175" x1="116.035" y1="6.8623" x2="117.037" y2="112.863" gradientUnits="userSpaceOnUse">
<stop stop-color="#35258D"/>
<stop offset="1" stop-color="#00C0C4"/>
</linearGradient>
</defs>
</svg>
