<svg width="1456" height="663" viewBox="0 0 1456 663" fill="none" xmlns="http://www.w3.org/2000/svg">
<g filter="url(#filter0_d_93_1395)">
<mask id="path-1-inside-1_93_1395" fill="white">
<path fill-rule="evenodd" clip-rule="evenodd" d="M43.023 10L10 44.0237V620.896V621V643.546H54.9375L57.5809 646.279L65.5111 638.859L70.3573 643.546H135.561L141.288 638.859H173.009L182.701 648.232H215.303L220.149 652.918L232.485 641.984H304.506L307.381 639.25L310.024 641.984H439.109L446.599 634.954L460.257 647.841H472.152L477.651 643.522H487.332V643.546H532.364L535.013 646.279L542.959 638.859L547.816 643.546H613.155L618.894 638.859H650.681L660.394 648.232H693.064L697.92 652.918L710.282 641.984H782.453L785.334 639.25L787.983 641.984H917.338L924.843 634.954L938.529 647.841H950.449L955.959 643.522H965.666V643.546H1010.7L1013.35 646.279L1021.29 638.859L1026.15 643.546H1091.49L1097.23 638.859H1129.01L1138.73 648.232H1171.4L1176.25 652.918L1188.61 641.984H1260.79L1263.67 639.25L1266.32 641.984H1395.67L1403.18 634.954L1416.86 647.841H1428.78L1434.29 643.522H1446V621V620.896V10H43.023ZM1263.67 639.25L1259.25 634.954H1268.08L1263.67 639.25ZM785.334 639.25L780.919 634.954H789.749L785.334 639.25ZM307.381 639.25L302.975 634.954H311.786L307.381 639.25Z"/>
</mask>
<path fill-rule="evenodd" clip-rule="evenodd" d="M43.023 10L10 44.0237V620.896V621V643.546H54.9375L57.5809 646.279L65.5111 638.859L70.3573 643.546H135.561L141.288 638.859H173.009L182.701 648.232H215.303L220.149 652.918L232.485 641.984H304.506L307.381 639.25L310.024 641.984H439.109L446.599 634.954L460.257 647.841H472.152L477.651 643.522H487.332V643.546H532.364L535.013 646.279L542.959 638.859L547.816 643.546H613.155L618.894 638.859H650.681L660.394 648.232H693.064L697.92 652.918L710.282 641.984H782.453L785.334 639.25L787.983 641.984H917.338L924.843 634.954L938.529 647.841H950.449L955.959 643.522H965.666V643.546H1010.7L1013.35 646.279L1021.29 638.859L1026.15 643.546H1091.49L1097.23 638.859H1129.01L1138.73 648.232H1171.4L1176.25 652.918L1188.61 641.984H1260.79L1263.67 639.25L1266.32 641.984H1395.67L1403.18 634.954L1416.86 647.841H1428.78L1434.29 643.522H1446V621V620.896V10H43.023ZM1263.67 639.25L1259.25 634.954H1268.08L1263.67 639.25ZM785.334 639.25L780.919 634.954H789.749L785.334 639.25ZM307.381 639.25L302.975 634.954H311.786L307.381 639.25Z" fill="black"/>
<path d="M10 44.0237L6.4121 40.5413L5 41.9962V44.0237H10ZM43.023 10V5H40.9081L39.4351 6.51762L43.023 10ZM10 643.546H5V648.546H10V643.546ZM54.9375 643.546L58.5319 640.07L57.0579 638.546H54.9375V643.546ZM57.5809 646.279L53.9865 649.755L57.4055 653.291L60.997 649.93L57.5809 646.279ZM65.5111 638.859L68.9868 635.265L65.5678 631.959L62.095 635.208L65.5111 638.859ZM70.3573 643.546L66.8816 647.14L68.3352 648.546H70.3573V643.546ZM135.561 643.546V648.546H137.346L138.727 647.415L135.561 643.546ZM141.288 638.859V633.859H139.503L138.122 634.99L141.288 638.859ZM173.009 638.859L176.484 635.265L175.031 633.859H173.009V638.859ZM182.701 648.232L179.225 651.826L180.679 653.232H182.701V648.232ZM215.303 648.232L218.779 644.637L217.325 643.232H215.303V648.232ZM220.149 652.918L216.673 656.512L220.001 659.73L223.466 656.66L220.149 652.918ZM232.485 641.984V636.984H230.588L229.168 638.242L232.485 641.984ZM304.506 641.984V646.984H306.504L307.951 645.607L304.506 641.984ZM310.024 641.984L306.43 645.459L307.904 646.984H310.024V641.984ZM439.109 641.984V646.984H441.088L442.531 645.629L439.109 641.984ZM446.599 634.954L450.031 631.318L446.608 628.088L443.177 631.308L446.599 634.954ZM460.257 647.841L456.825 651.478L458.27 652.841H460.257V647.841ZM472.152 647.841V652.841H473.881L475.24 651.773L472.152 647.841ZM477.651 643.522V638.522H475.922L474.562 639.59L477.651 643.522ZM487.332 643.522H492.332V638.522H487.332V643.522ZM487.332 643.546H482.332V648.546H487.332V643.546ZM532.364 643.546L535.954 640.066L534.481 638.546H532.364V643.546ZM535.013 646.279L531.422 649.759L534.837 653.284L538.425 649.934L535.013 646.279ZM542.959 638.859L546.431 635.261L543.016 631.966L539.547 635.205L542.959 638.859ZM547.816 643.546L544.344 647.144L545.797 648.546H547.816V643.546ZM613.155 643.546V648.546H614.937L616.318 647.419L613.155 643.546ZM618.894 638.859V633.859H617.112L615.732 634.986L618.894 638.859ZM650.681 638.859L654.153 635.261L652.7 633.859H650.681V638.859ZM660.394 648.232L656.922 651.83L658.375 653.232H660.394V648.232ZM693.064 648.232L696.536 644.634L695.083 643.232H693.064V648.232ZM697.92 652.918L694.448 656.516L697.773 659.724L701.233 656.663L697.92 652.918ZM710.282 641.984V636.984H708.388L706.969 638.238L710.282 641.984ZM782.453 641.984V646.984H784.448L785.895 645.611L782.453 641.984ZM787.983 641.984L784.392 645.463L785.866 646.984H787.983V641.984ZM917.338 641.984V646.984H919.313L920.755 645.633L917.338 641.984ZM924.843 634.954L928.271 631.314L924.852 628.095L921.425 631.305L924.843 634.954ZM938.529 647.841L935.101 651.482L936.545 652.841H938.529V647.841ZM950.449 647.841V652.841H952.175L953.534 651.776L950.449 647.841ZM955.959 643.522V638.522H954.233L952.875 639.587L955.959 643.522ZM965.666 643.522H970.666V638.522H965.666V643.522ZM965.666 643.546H960.666V648.546H965.666V643.546ZM1010.7 643.546L1014.29 640.066L1012.81 638.546H1010.7V643.546ZM1013.35 646.279L1009.76 649.759L1013.17 653.284L1016.76 649.934L1013.35 646.279ZM1021.29 638.859L1024.76 635.261L1021.35 631.966L1017.88 635.205L1021.29 638.859ZM1026.15 643.546L1022.68 647.144L1024.13 648.546H1026.15V643.546ZM1091.49 643.546V648.546H1093.27L1094.65 647.419L1091.49 643.546ZM1097.23 638.859V633.859H1095.45L1094.07 634.986L1097.23 638.859ZM1129.01 638.859L1132.49 635.261L1131.03 633.859H1129.01V638.859ZM1138.73 648.232L1135.26 651.83L1136.71 653.232H1138.73V648.232ZM1171.4 648.232L1174.87 644.634L1173.42 643.232H1171.4V648.232ZM1176.25 652.918L1172.78 656.516L1176.11 659.724L1179.57 656.663L1176.25 652.918ZM1188.61 641.984V636.984H1186.72L1185.3 638.238L1188.61 641.984ZM1260.79 641.984V646.984H1262.78L1264.23 645.61L1260.79 641.984ZM1266.32 641.984L1262.73 645.463L1264.2 646.984H1266.32V641.984ZM1395.67 641.984V646.984H1397.65L1399.09 645.633L1395.67 641.984ZM1403.18 634.954L1406.6 631.314L1403.19 628.095L1399.76 631.305L1403.18 634.954ZM1416.86 647.841L1413.43 651.482L1414.88 652.841H1416.86V647.841ZM1428.78 647.841V652.841H1430.51L1431.87 651.776L1428.78 647.841ZM1434.29 643.522V638.522H1432.57L1431.21 639.587L1434.29 643.522ZM1446 643.522V648.522H1451V643.522H1446ZM1446 10H1451V5H1446V10ZM1259.25 634.954V629.954H1246.94L1255.77 638.538L1259.25 634.954ZM1268.08 634.954L1271.57 638.538L1280.39 629.954H1268.08V634.954ZM780.919 634.954V629.954H768.61L777.432 638.538L780.919 634.954ZM789.749 634.954L793.236 638.538L802.057 629.954H789.749V634.954ZM302.975 634.954V629.954H290.685L299.485 638.534L302.975 634.954ZM311.786 634.954L315.277 638.534L324.077 629.954H311.786V634.954ZM13.5879 47.5061L46.6109 13.4824L39.4351 6.51762L6.4121 40.5413L13.5879 47.5061ZM15 620.896V44.0237H5V620.896H15ZM15 621V620.896H5V621H15ZM15 643.546V621H5V643.546H15ZM54.9375 638.546H10V648.546H54.9375V638.546ZM61.1753 642.804L58.5319 640.07L51.3432 647.021L53.9865 649.755L61.1753 642.804ZM62.095 635.208L54.1648 642.628L60.997 649.93L68.9272 642.51L62.095 635.208ZM73.833 639.951L68.9868 635.265L62.0354 642.454L66.8816 647.14L73.833 639.951ZM135.561 638.546H70.3573V648.546H135.561V638.546ZM138.122 634.99L132.395 639.676L138.727 647.415L144.454 642.729L138.122 634.99ZM173.009 633.859H141.288V643.859H173.009V633.859ZM186.177 644.637L176.484 635.265L169.533 642.454L179.225 651.826L186.177 644.637ZM215.303 643.232H182.701V653.232H215.303V643.232ZM223.625 649.324L218.779 644.637L211.827 651.826L216.673 656.512L223.625 649.324ZM229.168 638.242L216.832 649.176L223.466 656.66L235.802 645.725L229.168 638.242ZM304.506 636.984H232.485V646.984H304.506V636.984ZM303.935 635.627L301.061 638.36L307.951 645.607L310.826 642.873L303.935 635.627ZM313.619 638.508L310.975 635.774L303.786 642.726L306.43 645.459L313.619 638.508ZM439.109 636.984H310.024V646.984H439.109V636.984ZM443.177 631.308L435.688 638.338L442.531 645.629L450.021 638.6L443.177 631.308ZM463.688 644.205L450.031 631.318L443.168 638.591L456.825 651.478L463.688 644.205ZM472.152 642.841H460.257V652.841H472.152V642.841ZM474.562 639.59L469.063 643.909L475.24 651.773L480.739 647.454L474.562 639.59ZM487.332 638.522H477.651V648.522H487.332V638.522ZM492.332 643.546V643.522H482.332V643.546H492.332ZM532.364 638.546H487.332V648.546H532.364V638.546ZM538.603 642.8L535.954 640.066L528.773 647.025L531.422 649.759L538.603 642.8ZM539.547 635.205L531.6 642.625L538.425 649.934L546.372 642.514L539.547 635.205ZM551.287 639.948L546.431 635.261L539.487 642.457L544.344 647.144L551.287 639.948ZM613.155 638.546H547.816V648.546H613.155V638.546ZM615.732 634.986L609.993 639.673L616.318 647.419L622.057 642.732L615.732 634.986ZM650.681 633.859H618.894V643.859H650.681V633.859ZM663.866 644.634L654.153 635.261L647.209 642.457L656.922 651.83L663.866 644.634ZM693.064 643.232H660.394V653.232H693.064V643.232ZM701.392 649.32L696.536 644.634L689.592 651.83L694.448 656.516L701.392 649.32ZM706.969 638.238L694.607 649.173L701.233 656.663L713.594 645.729L706.969 638.238ZM782.453 636.984H710.282V646.984H782.453V636.984ZM781.892 635.623L779.011 638.357L785.895 645.611L788.776 642.877L781.892 635.623ZM791.574 638.504L788.925 635.77L781.743 642.729L784.392 645.463L791.574 638.504ZM917.338 636.984H787.983V646.984H917.338V636.984ZM921.425 631.305L913.92 638.334L920.755 645.633L928.261 638.604L921.425 631.305ZM941.957 644.201L928.271 631.314L921.415 638.594L935.101 651.482L941.957 644.201ZM950.449 642.841H938.529V652.841H950.449V642.841ZM952.875 639.587L947.364 643.906L953.534 651.776L959.044 647.457L952.875 639.587ZM965.666 638.522H955.959V648.522H965.666V638.522ZM970.666 643.546V643.522H960.666V643.546H970.666ZM1010.7 638.546H965.666V648.546H1010.7V638.546ZM1016.94 642.8L1014.29 640.066L1007.11 647.025L1009.76 649.759L1016.94 642.8ZM1017.88 635.205L1009.93 642.625L1016.76 649.934L1024.7 642.514L1017.88 635.205ZM1029.62 639.948L1024.76 635.261L1017.82 642.457L1022.68 647.144L1029.62 639.948ZM1091.49 638.546H1026.15V648.546H1091.49V638.546ZM1094.07 634.986L1088.33 639.673L1094.65 647.419L1100.39 642.732L1094.07 634.986ZM1129.01 633.859H1097.23V643.859H1129.01V633.859ZM1142.2 644.634L1132.49 635.261L1125.54 642.457L1135.26 651.83L1142.2 644.634ZM1171.4 643.232H1138.73V653.232H1171.4V643.232ZM1179.73 649.32L1174.87 644.634L1167.93 651.83L1172.78 656.516L1179.73 649.32ZM1185.3 638.238L1172.94 649.173L1179.57 656.663L1191.93 645.729L1185.3 638.238ZM1260.79 636.984H1188.61V646.984H1260.79V636.984ZM1260.23 635.623L1257.34 638.357L1264.23 645.61L1267.11 642.877L1260.23 635.623ZM1269.91 638.504L1267.26 635.77L1260.08 642.729L1262.73 645.463L1269.91 638.504ZM1395.67 636.984H1266.32V646.984H1395.67V636.984ZM1399.76 631.305L1392.25 638.334L1399.09 645.633L1406.59 638.604L1399.76 631.305ZM1420.29 644.201L1406.6 631.314L1399.75 638.594L1413.43 651.482L1420.29 644.201ZM1428.78 642.841H1416.86V652.841H1428.78V642.841ZM1431.21 639.587L1425.7 643.906L1431.87 651.776L1437.38 647.457L1431.21 639.587ZM1446 638.522H1434.29V648.522H1446V638.522ZM1441 621V643.522H1451V621H1441ZM1441 620.896V621H1451V620.896H1441ZM1441 10V620.896H1451V10H1441ZM43.023 15H1446V5H43.023V15ZM1255.77 638.538L1260.18 642.833L1267.15 635.666L1262.74 631.371L1255.77 638.538ZM1268.08 629.954H1259.25V639.954H1268.08V629.954ZM1267.15 642.834L1271.57 638.538L1264.6 631.371L1260.18 635.666L1267.15 642.834ZM777.432 638.538L781.847 642.833L788.821 635.666L784.406 631.371L777.432 638.538ZM789.749 629.954H780.919V639.954H789.749V629.954ZM788.821 642.833L793.236 638.538L786.262 631.371L781.847 635.666L788.821 642.833ZM299.485 638.534L303.89 642.83L310.871 635.67L306.466 631.374L299.485 638.534ZM311.786 629.954H302.975V639.954H311.786V629.954ZM310.871 642.83L315.277 638.534L308.296 631.374L303.89 635.67L310.871 642.83Z" fill="url(#paint0_linear_93_1395)" mask="url(#path-1-inside-1_93_1395)"/>
</g>
<defs>
<filter id="filter0_d_93_1395" x="0" y="0" width="1456" height="662.918" filterUnits="userSpaceOnUse" color-interpolation-filters="sRGB">
<feFlood flood-opacity="0" result="BackgroundImageFix"/>
<feColorMatrix in="SourceAlpha" type="matrix" values="0 0 0 0 0 0 0 0 0 0 0 0 0 0 0 0 0 0 127 0" result="hardAlpha"/>
<feOffset/>
<feGaussianBlur stdDeviation="5"/>
<feComposite in2="hardAlpha" operator="out"/>
<feColorMatrix type="matrix" values="0 0 0 0 0 0 0 0 0 0 0 0 0 0 0 0 0 0 0.25 0"/>
<feBlend mode="normal" in2="BackgroundImageFix" result="effect1_dropShadow_93_1395"/>
<feBlend mode="normal" in="SourceGraphic" in2="effect1_dropShadow_93_1395" result="shape"/>
</filter>
<linearGradient id="paint0_linear_93_1395" x1="324.847" y1="-29.8112" x2="324.847" y2="557.179" gradientUnits="userSpaceOnUse">
<stop stop-color="#35258D"/>
<stop offset="1" stop-color="#06BDFC"/>
</linearGradient>
</defs>
</svg>
